<?xml version="1.0" encoding="utf-8"?>
<!-- Generator: Adobe Illustrator 23.0.1, SVG Export Plug-In . SVG Version: 6.00 Build 0)  -->
<svg version="1.1" id="Layer_1" xmlns="http://www.w3.org/2000/svg" xmlns:xlink="http://www.w3.org/1999/xlink" x="0px" y="0px"
	 viewBox="0 0 146 32.3" style="enable-background:new 0 0 146 32.3;" xml:space="preserve">
<g>
	<path d="M18.9,7.2c-5,0-9,4-9,9s4,9,9,9s9-4,9-9S23.8,7.2,18.9,7.2z M18.9,21.6c-3,0-5.4-2.4-5.4-5.4s2.4-5.4,5.4-5.4
		s5.4,2.4,5.4,5.4S21.8,21.6,18.9,21.6z"/>
	<path d="M60.2,7.2c-5,0-9,4-9,9s4,9,9,9s9-4,9-9S65.1,7.2,60.2,7.2z M60.2,21.6c-3,0-5.4-2.4-5.4-5.4s2.4-5.4,5.4-5.4
		c3,0,5.4,2.4,5.4,5.4S63.2,21.6,60.2,21.6z"/>
	<path d="M44.9,9c-1.5-1.1-3.4-1.8-5.4-1.8c-5,0-9,4-9,9s4,9,9,9c2,0,3.9-0.7,5.4-1.8v1.8c0,2-1.6,3.6-3.6,3.6h-3.6v3.6h3.6
		c4,0,7.2-3.2,7.2-7.2V7.6h-3.6V9z M39.5,21.6c-3,0-5.4-2.4-5.4-5.4s2.4-5.4,5.4-5.4c3,0,5.4,2.4,5.4,5.4S42.5,21.6,39.5,21.6z"/>
	<path d="M125.3,5.4v2.2h-3.6v3.6h3.6v13.5h3.6V11.2h3.6V7.6h-3.6V5.4c0-1,0.8-1.8,1.8-1.8h1.8V0h-1.8C127.7,0,125.3,2.4,125.3,5.4z
		"/>
	<polyline points="142.4,19.3 142.4,11.2 146,11.2 146,7.6 142.4,7.6 142.4,3.6 138.8,3.6 138.8,7.6 135.2,7.6 135.2,11.2 
		138.8,11.2 138.8,19.3 	"/>
	<path d="M138.8,19.3c0,3,2.4,5.4,5.4,5.4h1.8v-3.6h-1.8c-1,0-1.8-0.8-1.8-1.8"/>
	<polygon points="105.5,19 101.9,7.6 98.4,7.6 94.8,19 91.2,7.6 87.6,7.6 93,24.7 96.6,24.7 100.2,13.3 103.7,24.7 107.3,24.7 
		112.7,7.6 109.1,7.6 	"/>
	<rect x="115.4" y="7.6" width="3.6" height="17.1"/>
	<circle cx="117.2" cy="2.7" r="2.7"/>
	<path d="M3.6,19.3V0H0v19.3c0,3,2.4,5.4,5.4,5.4h1.8v-3.6H5.4C4.4,21.1,3.6,20.3,3.6,19.3z"/>
	<path d="M82.6,13h3.6c0.2-7.5-14.1-7.9-14.4-0.4c-0.2,7.2,10.8,3.6,10.8,7.2c0,2.7-7.2,2.7-7.2-0.4h-3.6
		c-0.2,7.5,14.1,7.9,14.4,0.4c0.2-7.2-10.8-3.6-10.8-7.2C75.4,9.9,82.6,9.9,82.6,13z"/>
</g>
</svg>
